<svg id="Capa_1" data-name="Capa 1" xmlns="http://www.w3.org/2000/svg" viewBox="0 0 321.02 99.28"><defs><style>.cls-1{fill:none;}.cls-1,.cls-2{stroke:#f29c77;stroke-miterlimit:10;stroke-width:2.03px;}.cls-2,.cls-3{fill:#f29c77;}</style></defs><title>o1 logo</title><rect class="cls-1" x="11.09" y="11.09" width="77.11" height="77.11" rx="14.24" ry="14.24" transform="translate(-20.56 49.64) rotate(-45)"/><path class="cls-1" d="M55.5,21.5H43.78a1,1,0,0,0-.89.51L37,32.16a1,1,0,0,0,0,1l5.86,10.15a1,1,0,0,0,.89.52H55.5a1,1,0,0,0,.89-.52l5.86-10.15a1,1,0,0,0,0-1L56.39,22A1,1,0,0,0,55.5,21.5Z"/><line class="cls-1" x1="59.71" y1="49.64" x2="39.9" y2="49.64"/><line class="cls-1" x1="87.2" y1="32.68" x2="62.55" y2="32.68"/><line class="cls-1" x1="36.73" y1="65.97" x2="11.25" y2="65.97"/><path class="cls-2" d="M78,38.46H66.29a1,1,0,0,0-.89.52L59.54,49.12a1,1,0,0,0,0,1L65.4,60.3a1,1,0,0,0,.89.52H78a1,1,0,0,0,.89-.52l5.86-10.14a1,1,0,0,0,0-1L78.9,39A1,1,0,0,0,78,38.46Z"/><path class="cls-2" d="M32.85,38.46H21.13a1,1,0,0,0-.89.52L14.38,49.12a1,1,0,0,0,0,1L20.24,60.3a1,1,0,0,0,.89.52H32.85a1,1,0,0,0,.89-.52L39.6,50.16a1,1,0,0,0,0-1L33.74,39A1,1,0,0,0,32.85,38.46Z"/><path class="cls-1" d="M55.5,54.79H43.78a1,1,0,0,0-.89.51L37,65.45a1,1,0,0,0,0,1l5.86,10.15a1,1,0,0,0,.89.52H55.5a1,1,0,0,0,.89-.52l5.86-10.15a1,1,0,0,0,0-1L56.39,55.3A1,1,0,0,0,55.5,54.79Z"/><path class="cls-3" d="M123.21,36.44A98.38,98.38,0,0,0,134,33.81V38c.12,0,3.91-2.33,4.09-2.39a7.47,7.47,0,0,1,3.79-1.23c6.42,0,10.1,5.9,10.1,11.5,0,8.52-6.77,14.19-14.3,15.82a10.7,10.7,0,0,1-3.68-.53v7c0,3.27.3,3.62,4.32,4.14v1.93H122.63V72.33c3.56-.35,3.79-.87,3.79-4.08v-26c0-3.15-.35-3.5-3.21-3.85ZM134,56.75a8,8,0,0,0,4.79,2.16c3.09,0,5.37-3.8,5.37-10.1,0-7.18-3.56-9.92-6.48-9.92A6.37,6.37,0,0,0,134,40.17Z"/><path class="cls-3" d="M155.43,61V59c3.33-.52,3.44-.81,3.44-4.49V28c0-3-.35-3.38-3.38-4V22.08a59.8,59.8,0,0,0,10.91-2V54.53c0,3.85.18,4.09,3.5,4.49v2Z"/><path class="cls-3" d="M192.49,61.71a5.37,5.37,0,0,1-3.62-1.23,5.77,5.77,0,0,1-1.52-2.16c-2.21,1.46-5.07,3.39-6.18,3.39a7.68,7.68,0,0,1-7.94-7.53c0-3.09,1.4-4.49,4.49-5.72,3.45-1.28,8.06-2.68,9.4-3.85V42c0-3-1.11-4.73-3.62-4.73a2.86,2.86,0,0,0-2.33,1.17,11,11,0,0,0-1.4,3.85,2.31,2.31,0,0,1-2.51,2c-1.52,0-3.45-1.4-3.45-3,0-1.05.7-1.81,2-2.74a28.87,28.87,0,0,1,9.34-4.15,10.27,10.27,0,0,1,6,1.7c2.51,1.75,3.21,4.2,3.21,7.18V53.36c0,2.8.93,3.51,1.86,3.51a4.39,4.39,0,0,0,1.81-.47l.64,2ZM187.12,47l-3.27,1.81c-1.81.93-2.86,2-2.86,4,0,3.27,2.28,4.43,3.56,4.43a3.26,3.26,0,0,0,2.57-.93Z"/><path class="cls-3" d="M217.29,61V59c2.45-.35,2.63-.58,2.63-4.61v-10c0-4.14-2-5.43-4.09-5.43a7.12,7.12,0,0,0-4.37,1.76V54.88c0,3.56.23,3.79,2.62,4.14v2H200.54V59c3-.52,3.39-.58,3.39-4.37V42.51c0-3.51-.47-3.68-3-4.21V36.44a61,61,0,0,0,10.68-2.22c-.06.82-.11,2.86-.11,4.2,1.16-.82,2.39-1.69,3.73-2.51a8,8,0,0,1,4.55-1.52c4.73,0,7.71,3.45,7.71,9.4v11c0,3.62.35,3.8,3.15,4.2v2Z"/><path class="cls-3" d="M257,55.29c-3.57,5.25-8.23,6.42-10.69,6.42-7.82,0-12.25-5.78-12.25-12.72a15.34,15.34,0,0,1,4.37-10.51,13.08,13.08,0,0,1,9.11-4.09,9.57,9.57,0,0,1,9.63,9.52c0,1-.06,2-.76,2.16-1.11.29-9.34.7-15,.93.23,6.19,3.68,9.34,7.88,9.34A10,10,0,0,0,256,53.71Zm-10.63-18.5c-2.33,0-4.32,2.74-4.67,7.35l7.07-.17c.81-.06,1.16-.18,1.16-1.17C250,39.88,248.69,36.79,246.41,36.79Z"/><path class="cls-3" d="M273.43,61.07a6.47,6.47,0,0,1-2.33.64c-4.5,0-7.18-2.1-7.18-7.41V38h-3.74l-.35-.7,1.7-2.22h2.39V30.25c2-1.4,4.84-3.27,6.89-4.67l.76.47c-.06,1.57-.18,4.67-.12,9h5.84a2.52,2.52,0,0,1-.47,2.92h-5.37v14.3c0,4.56,1.87,5.08,3,5.08a7.24,7.24,0,0,0,2.8-.58l.58,2.1Z"/><path class="cls-3" d="M306.64,37.52c6.89,1.25,11.75,4.53,11.75,10.43a11.89,11.89,0,0,1-6.3,10.3C308.74,60.09,304.28,61,299,61H281.25V58.58c5.05-.52,5.58-.85,5.58-6.36v-25c0-5.51-.86-6.1-5.51-6.43V18.36h19.94c5,0,8.14.66,10.76,2.3a8.42,8.42,0,0,1,4,7.28C316,33.39,310.91,36.67,306.64,37.52Zm-8.33-.85c6.23,0,8.53-2.69,8.53-7.55,0-5.71-3.74-7.87-7.35-7.87a5.6,5.6,0,0,0-3.15.79,4.38,4.38,0,0,0-.59,2.82V36.67Zm-2.56,15.42c0,4.72,1.58,6.1,5.12,6.1,3.74-.07,7.74-3.22,7.74-9.58,0-6.1-3.21-9.12-10.56-9.12h-2.3Z"/></svg>