<svg id="Capa_1" data-name="Capa 1" xmlns="http://www.w3.org/2000/svg" viewBox="0 0 306.27 306.27"><defs><style>.cls-1{fill:none;}.cls-1,.cls-2{stroke:#7f7f7f;stroke-miterlimit:10;stroke-width:6.27px;}.cls-2{fill:#7f8080;}</style></defs><title>g icon</title><rect class="cls-1" x="34.2" y="34.2" width="237.87" height="237.87" rx="43.94" ry="43.94" transform="translate(-63.43 153.13) rotate(-45)"/><path class="cls-1" d="M171.2,66.32H135.06a3.2,3.2,0,0,0-2.76,1.59l-18.07,31.3a3.19,3.19,0,0,0,0,3.19l18.07,31.3a3.18,3.18,0,0,0,2.76,1.6H171.2a3.2,3.2,0,0,0,2.77-1.6L192,102.4a3.19,3.19,0,0,0,0-3.19L174,67.91A3.21,3.21,0,0,0,171.2,66.32Z"/><line class="cls-1" x1="184.19" y1="153.13" x2="123.09" y2="153.13"/><line class="cls-1" x1="269.01" y1="100.81" x2="192.96" y2="100.81"/><line class="cls-1" x1="113.31" y1="203.51" x2="34.71" y2="203.51"/><path class="cls-2" d="M240.65,118.64H204.51a3.2,3.2,0,0,0-2.77,1.6l-18.07,31.3a3.19,3.19,0,0,0,0,3.19L201.74,186a3.21,3.21,0,0,0,2.77,1.59h36.14a3.2,3.2,0,0,0,2.76-1.59l18.07-31.3a3.19,3.19,0,0,0,0-3.19l-18.07-31.3A3.18,3.18,0,0,0,240.65,118.64Z"/><path class="cls-2" d="M101.34,118.64H65.19a3.18,3.18,0,0,0-2.76,1.6l-18.07,31.3a3.19,3.19,0,0,0,0,3.19L62.43,186a3.2,3.2,0,0,0,2.76,1.59h36.15A3.21,3.21,0,0,0,104.1,186l18.07-31.3a3.19,3.19,0,0,0,0-3.19l-18.07-31.3A3.2,3.2,0,0,0,101.34,118.64Z"/><path class="cls-1" d="M171.2,169H135.06a3.17,3.17,0,0,0-2.76,1.59l-18.07,31.3a3.19,3.19,0,0,0,0,3.19l18.07,31.3a3.18,3.18,0,0,0,2.76,1.6H171.2a3.2,3.2,0,0,0,2.77-1.6L192,205.1a3.19,3.19,0,0,0,0-3.19L174,170.61A3.19,3.19,0,0,0,171.2,169Z"/></svg>