<svg id="Capa_1" data-name="Capa 1" xmlns="http://www.w3.org/2000/svg" viewBox="0 0 321.72 97.84"><defs><style>.cls-1{fill:none;}.cls-1,.cls-2,.cls-3{stroke:#7f7f7f;stroke-miterlimit:10;}.cls-1,.cls-2{stroke-width:2px;}.cls-2{fill:#7f8080;}.cls-3{fill:#7f7f7f;stroke-width:1.44px;}</style></defs><title>g logo</title><rect class="cls-1" x="10.93" y="10.93" width="75.99" height="75.99" rx="14.04" ry="14.04" transform="translate(-20.26 48.92) rotate(-45)"/><path class="cls-1" d="M54.69,21.19H43.15a1,1,0,0,0-.89.51l-5.77,10a1,1,0,0,0,0,1l5.77,10a1,1,0,0,0,.89.51H54.69a1,1,0,0,0,.89-.51l5.77-10a1,1,0,0,0,0-1l-5.77-10A1,1,0,0,0,54.69,21.19Z"/><line class="cls-1" x1="58.84" y1="48.92" x2="39.32" y2="48.92"/><line class="cls-1" x1="85.94" y1="32.2" x2="61.64" y2="32.2"/><line class="cls-1" x1="36.2" y1="65.01" x2="11.09" y2="65.01"/><path class="cls-2" d="M76.88,37.9H65.33a1,1,0,0,0-.88.51l-5.77,10a1,1,0,0,0,0,1l5.77,10a1,1,0,0,0,.88.51H76.88a1,1,0,0,0,.88-.51l5.77-10a1,1,0,0,0,0-1l-5.77-10A1,1,0,0,0,76.88,37.9Z"/><path class="cls-2" d="M32.37,37.9H20.83a1,1,0,0,0-.89.51l-5.77,10a1,1,0,0,0,0,1l5.77,10a1,1,0,0,0,.89.51H32.37a1,1,0,0,0,.89-.51l5.77-10a1,1,0,0,0,0-1l-5.77-10A1,1,0,0,0,32.37,37.9Z"/><path class="cls-1" d="M54.69,54H43.15a1,1,0,0,0-.89.51l-5.77,10a1,1,0,0,0,0,1l5.77,10a1,1,0,0,0,.89.51H54.69a1,1,0,0,0,.89-.51l5.77-10a1,1,0,0,0,0-1l-5.77-10A1,1,0,0,0,54.69,54Z"/><path class="cls-3" d="M126.07,34.9a98.11,98.11,0,0,0,10.58-2.58v4.14c.11-.06,3.85-2.3,4-2.36a7.46,7.46,0,0,1,3.74-1.21c6.33,0,10,5.81,10,11.33,0,8.4-6.67,14-14.09,15.59a10.6,10.6,0,0,1-3.62-.52v6.9c0,3.22.29,3.57,4.25,4.08v1.9H125.49v-1.9c3.51-.34,3.74-.86,3.74-4V40.6c0-3.11-.35-3.45-3.16-3.8Zm10.58,20A7.89,7.89,0,0,0,141.36,57c3,0,5.29-3.73,5.29-9.94,0-7.08-3.5-9.78-6.38-9.78a6.24,6.24,0,0,0-3.62,1.26Z"/><path class="cls-3" d="M157.81,59.11v-2c3.28-.52,3.4-.8,3.4-4.43V26.56c0-3-.35-3.33-3.34-4V20.76a60.4,60.4,0,0,0,10.76-2V52.73c0,3.8.17,4,3.45,4.43v2Z"/><path class="cls-3" d="M194.33,59.81a5.29,5.29,0,0,1-3.56-1.21,5.81,5.81,0,0,1-1.5-2.13c-2.18,1.44-5,3.34-6.09,3.34a7.56,7.56,0,0,1-7.82-7.42c0-3,1.37-4.43,4.42-5.64,3.4-1.26,7.94-2.64,9.26-3.8V40.42c0-3-1.09-4.65-3.56-4.65a2.82,2.82,0,0,0-2.3,1.15,11,11,0,0,0-1.38,3.79,2.28,2.28,0,0,1-2.48,2c-1.49,0-3.39-1.38-3.39-3,0-1,.69-1.79,2-2.71a28.43,28.43,0,0,1,9.2-4.08,10.13,10.13,0,0,1,5.93,1.67c2.47,1.72,3.16,4.14,3.16,7.07v9.95c0,2.76.92,3.45,1.84,3.45a4.24,4.24,0,0,0,1.78-.46l.64,2ZM189,45.31l-3.22,1.79C184,48,183,49.05,183,51c0,3.22,2.25,4.37,3.51,4.37a3.24,3.24,0,0,0,2.53-.92Z"/><path class="cls-3" d="M218.78,59.11v-2c2.41-.34,2.59-.57,2.59-4.54V42.78c0-4.08-2-5.35-4-5.35A7,7,0,0,0,213,39.16V53.08c0,3.51.23,3.74,2.58,4.08v2H202.27v-2c3-.52,3.34-.57,3.34-4.31v-12c0-3.45-.46-3.62-3-4.14V34.9a60.31,60.31,0,0,0,10.52-2.18c-.06.8-.11,2.82-.11,4.14,1.15-.81,2.35-1.67,3.68-2.47a7.85,7.85,0,0,1,4.48-1.5c4.66,0,7.59,3.39,7.59,9.26V53c0,3.57.35,3.74,3.11,4.14v2Z"/><path class="cls-3" d="M257.94,53.48c-3.5,5.18-8.1,6.33-10.52,6.33-7.71,0-12.08-5.7-12.08-12.54a15.07,15.07,0,0,1,4.32-10.35,12.85,12.85,0,0,1,9-4,9.44,9.44,0,0,1,9.49,9.38c0,1-.06,1.95-.75,2.12-1.09.29-9.2.69-14.78.92.23,6.1,3.62,9.2,7.76,9.2a9.92,9.92,0,0,0,6.56-2.58ZM247.48,35.25c-2.3,0-4.26,2.7-4.6,7.24l7-.17c.8,0,1.15-.17,1.15-1.15C251,38.3,249.72,35.25,247.48,35.25Z"/><path class="cls-3" d="M274.11,59.17a6.36,6.36,0,0,1-2.3.64c-4.43,0-7.08-2.07-7.08-7.31v-16h-3.68l-.34-.69,1.66-2.19h2.36V28.81c2-1.38,4.77-3.22,6.79-4.6l.75.46c-.06,1.55-.18,4.6-.12,8.91h5.75a2.48,2.48,0,0,1-.46,2.88h-5.29V50.55c0,4.48,1.84,5,2.93,5a6.85,6.85,0,0,0,2.76-.58l.58,2.07Z"/><path class="cls-3" d="M306.84,36c6.79,1.23,11.57,4.47,11.57,10.29a11.73,11.73,0,0,1-6.2,10.15c-3.3,1.81-7.7,2.71-12.94,2.71H281.81V56.72c5-.52,5.5-.84,5.5-6.27V25.81c0-5.43-.84-6-5.43-6.34V17.08h19.66c4.91,0,8,.65,10.6,2.27a8.32,8.32,0,0,1,3.95,7.17C316.09,31.89,311,35.12,306.84,36Zm-8.21-.84c6.14,0,8.4-2.65,8.4-7.43,0-5.63-3.68-7.76-7.24-7.76a5.51,5.51,0,0,0-3.1.77,4.3,4.3,0,0,0-.59,2.78V35.12Zm-2.53,15.2c0,4.66,1.56,6,5,6,3.68-.06,7.63-3.16,7.63-9.44,0-6-3.17-9-10.41-9H296.1Z"/></svg>