<svg id="Capa_1" data-name="Capa 1" xmlns="http://www.w3.org/2000/svg" viewBox="0 0 321 97.46"><defs><style>.cls-1,.cls-2{fill:none;}.cls-1,.cls-3{stroke:#010101;}.cls-1,.cls-2,.cls-3{stroke-miterlimit:10;stroke-width:1.99px;}.cls-2{stroke:#000;}</style></defs><title>n logo</title><rect class="cls-1" x="10.88" y="10.88" width="75.69" height="75.69" rx="13.98" ry="13.98" transform="translate(-20.18 48.73) rotate(-45)"/><path class="cls-1" d="M54.48,21.1H43a1,1,0,0,0-.88.51l-5.75,10a1,1,0,0,0,0,1l5.75,10a1,1,0,0,0,.88.5h11.5a1,1,0,0,0,.88-.5l5.75-10a1,1,0,0,0,0-1l-5.75-10A1,1,0,0,0,54.48,21.1Z"/><line class="cls-2" x1="58.61" y1="48.73" x2="39.17" y2="48.73"/><line class="cls-1" x1="85.6" y1="32.08" x2="61.4" y2="32.08"/><line class="cls-1" x1="36.06" y1="64.76" x2="11.04" y2="64.76"/><path class="cls-3" d="M76.58,37.75H65.08a1,1,0,0,0-.88.51l-5.75,10a1,1,0,0,0,0,1l5.75,10a1,1,0,0,0,.88.5h11.5a1,1,0,0,0,.87-.5l5.76-10a1,1,0,0,0,0-1l-5.76-10A1,1,0,0,0,76.58,37.75Z"/><path class="cls-3" d="M36.32,41.18,25.89,36.35a1,1,0,0,0-1,.09l-9.41,6.63a1,1,0,0,0-.42.92l1,11.45a1,1,0,0,0,.59.83L27.1,61.1a1,1,0,0,0,1-.09l9.41-6.62a1,1,0,0,0,.42-.92L36.91,42A1,1,0,0,0,36.32,41.18Z"/><path class="cls-1" d="M54.48,53.78H43a1,1,0,0,0-.88.51l-5.75,10a1,1,0,0,0,0,1l5.75,10a1,1,0,0,0,.88.51h11.5a1,1,0,0,0,.88-.51l5.75-10a1,1,0,0,0,0-1l-5.75-10A1,1,0,0,0,54.48,53.78Z"/><path d="M126.83,35.77a97.57,97.57,0,0,0,10.54-2.58v4.12c.11-.05,3.84-2.29,4-2.35a7.44,7.44,0,0,1,3.73-1.2c6.3,0,9.91,5.79,9.91,11.29,0,8.36-6.65,13.92-14,15.53a10.57,10.57,0,0,1-3.61-.52v6.88c0,3.21.29,3.55,4.24,4.06v1.9H126.25V71c3.5-.34,3.73-.85,3.73-4V41.44c0-3.09-.34-3.44-3.15-3.78Zm10.54,19.94a7.93,7.93,0,0,0,4.7,2.12c3,0,5.27-3.73,5.27-9.92,0-7-3.5-9.74-6.36-9.74a6.28,6.28,0,0,0-3.61,1.26Z"/><path d="M158.45,59.89v-2c3.27-.52,3.38-.8,3.38-4.41V27.46c0-3-.34-3.32-3.32-3.95V21.67a59,59,0,0,0,10.71-2V53.53c0,3.78.17,4,3.44,4.41v2Z"/><path d="M194.83,60.58a5.24,5.24,0,0,1-3.55-1.21,5.78,5.78,0,0,1-1.49-2.12c-2.18,1.44-5,3.33-6.07,3.33a7.54,7.54,0,0,1-7.8-7.39c0-3,1.38-4.42,4.42-5.62,3.38-1.26,7.9-2.64,9.22-3.78V41.27c0-3-1.09-4.64-3.55-4.64a2.79,2.79,0,0,0-2.29,1.14,10.93,10.93,0,0,0-1.38,3.78,2.26,2.26,0,0,1-2.46,2c-1.49,0-3.38-1.37-3.38-3,0-1,.68-1.77,2-2.69a28.25,28.25,0,0,1,9.17-4.07,10.1,10.1,0,0,1,5.9,1.66c2.46,1.72,3.15,4.13,3.15,7v9.91c0,2.75.92,3.44,1.84,3.44a4.24,4.24,0,0,0,1.77-.46l.63,2Zm-5.27-14.44-3.21,1.77c-1.77.92-2.81,2-2.81,3.9,0,3.21,2.24,4.35,3.5,4.35a3.22,3.22,0,0,0,2.52-.91Z"/><path d="M219.18,59.89v-2c2.41-.34,2.58-.57,2.58-4.53V43.62c0-4.07-2-5.33-4-5.33a7,7,0,0,0-4.3,1.72V53.87c0,3.5.23,3.73,2.58,4.07v2h-13.3v-2c3-.52,3.33-.57,3.33-4.3V41.73c0-3.44-.46-3.61-3-4.13V35.77a59.68,59.68,0,0,0,10.48-2.18c-.05.8-.11,2.81-.11,4.13,1.15-.81,2.35-1.67,3.67-2.47a7.85,7.85,0,0,1,4.47-1.49c4.64,0,7.56,3.38,7.56,9.23V53.82c0,3.55.34,3.72,3.09,4.12v2Z"/><path d="M258.19,54.27c-3.49,5.16-8.08,6.31-10.48,6.31-7.68,0-12-5.68-12-12.49A15.08,15.08,0,0,1,240,37.77a12.83,12.83,0,0,1,8.94-4,9.39,9.39,0,0,1,9.45,9.34c0,1-.05,1.95-.74,2.12-1.09.29-9.17.69-14.73.92.23,6.07,3.61,9.17,7.74,9.17a9.91,9.91,0,0,0,6.53-2.58ZM247.76,36.11c-2.29,0-4.23,2.69-4.58,7.22l6.93-.17c.81-.06,1.15-.17,1.15-1.15C251.32,39.15,250,36.11,247.76,36.11Z"/><path d="M274.29,60a6.41,6.41,0,0,1-2.29.63c-4.41,0-7.05-2.07-7.05-7.28v-16h-3.67l-.34-.68,1.66-2.18H265V29.69c1.95-1.37,4.76-3.2,6.76-4.58l.75.46c-.06,1.54-.18,4.58-.12,8.88h5.73a2.45,2.45,0,0,1-.46,2.86h-5.27v14c0,4.47,1.83,5,2.92,5a7,7,0,0,0,2.75-.58l.58,2.07Z"/><path d="M306.89,36.83c6.76,1.23,11.53,4.45,11.53,10.24a11.68,11.68,0,0,1-6.19,10.11c-3.28,1.81-7.66,2.71-12.88,2.71H282V57.51c5-.52,5.48-.84,5.48-6.25V26.72c0-5.41-.84-6-5.41-6.31V18h19.58c4.89,0,8,.65,10.56,2.26a8.28,8.28,0,0,1,3.93,7.15C316.1,32.77,311.07,36,306.89,36.83ZM298.71,36c6.12,0,8.37-2.64,8.37-7.4,0-5.61-3.67-7.73-7.21-7.73a5.47,5.47,0,0,0-3.09.77,4.27,4.27,0,0,0-.58,2.77V36ZM296.2,51.13c0,4.64,1.54,6,5,6,3.67-.06,7.6-3.16,7.6-9.4,0-6-3.16-9-10.37-9H296.2Z"/></svg>