<svg id="Capa_1" data-name="Capa 1" xmlns="http://www.w3.org/2000/svg" viewBox="0 0 321.02 99.4"><defs><style>.cls-1{fill:#f29c77;}.cls-1,.cls-3{stroke:#fff;}.cls-1,.cls-2,.cls-3,.cls-4,.cls-5{stroke-miterlimit:10;stroke-width:2.03px;}.cls-2,.cls-3{fill:none;}.cls-2{stroke:#fcfcfc;}.cls-4{fill:#fcfcfc;}.cls-4,.cls-5{stroke:#fffffd;}.cls-5,.cls-6{fill:#fff;}</style></defs><title>o2 logo</title><rect class="cls-1" x="11.1" y="11.1" width="77.2" height="77.2" rx="14.26" ry="14.26" transform="translate(-20.59 49.7) rotate(-45)"/><path class="cls-2" d="M55.56,21.52H43.83a1,1,0,0,0-.89.52L37.07,32.2a1,1,0,0,0,0,1l5.87,10.16a1,1,0,0,0,.89.52H55.56a1,1,0,0,0,.9-.52l5.86-10.16a1,1,0,0,0,0-1L56.46,22A1,1,0,0,0,55.56,21.52Z"/><line class="cls-3" x1="59.78" y1="49.7" x2="39.95" y2="49.7"/><line class="cls-2" x1="87.31" y1="32.72" x2="62.62" y2="32.72"/><line class="cls-2" x1="36.77" y1="66.05" x2="11.26" y2="66.05"/><path class="cls-4" d="M78.1,38.51H66.37a1,1,0,0,0-.89.51L59.61,49.18a1.07,1.07,0,0,0,0,1l5.87,10.15a1,1,0,0,0,.89.52H78.1a1,1,0,0,0,.9-.52l5.86-10.15a1,1,0,0,0,0-1L79,39A1,1,0,0,0,78.1,38.51Z"/><path class="cls-5" d="M32.89,38.51H21.16a1,1,0,0,0-.9.51L14.4,49.18a1,1,0,0,0,0,1l5.86,10.15a1,1,0,0,0,.9.52H32.89a1,1,0,0,0,.89-.52l5.87-10.15a1.07,1.07,0,0,0,0-1L33.78,39A1,1,0,0,0,32.89,38.51Z"/><path class="cls-2" d="M55.56,54.85H43.83a1,1,0,0,0-.89.52L37.07,65.53a1,1,0,0,0,0,1l5.87,10.16a1,1,0,0,0,.89.52H55.56a1,1,0,0,0,.9-.52l5.86-10.16a1,1,0,0,0,0-1L56.46,55.37A1,1,0,0,0,55.56,54.85Z"/><path class="cls-6" d="M123,36.49a99.65,99.65,0,0,0,10.75-2.63v4.2c.12-.06,3.91-2.33,4.09-2.39a7.47,7.47,0,0,1,3.8-1.23c6.42,0,10.1,5.9,10.1,11.51,0,8.53-6.77,14.2-14.31,15.83a10.73,10.73,0,0,1-3.68-.52v7c0,3.27.29,3.62,4.32,4.15v1.92H122.39V72.42c3.57-.35,3.8-.88,3.8-4.09V42.27c0-3.16-.35-3.51-3.21-3.86Zm10.75,20.33A8,8,0,0,0,138.52,59c3.1,0,5.37-3.8,5.37-10.11,0-7.19-3.56-9.93-6.48-9.93a6.35,6.35,0,0,0-3.68,1.28Z"/><path class="cls-6" d="M155.23,61.08v-2c3.33-.53,3.45-.82,3.45-4.5V28c0-3-.35-3.39-3.39-4V22.11a61.15,61.15,0,0,0,10.93-2V54.6c0,3.85.17,4.09,3.5,4.5v2Z"/><path class="cls-6" d="M192.33,61.78a5.39,5.39,0,0,1-3.62-1.22,5.79,5.79,0,0,1-1.52-2.17c-2.22,1.47-5.08,3.39-6.19,3.39a7.68,7.68,0,0,1-7.95-7.53c0-3.1,1.4-4.5,4.5-5.73,3.45-1.28,8.06-2.69,9.41-3.86V42.09c0-3-1.11-4.73-3.62-4.73A2.87,2.87,0,0,0,181,38.53a11,11,0,0,0-1.4,3.86,2.32,2.32,0,0,1-2.52,2c-1.52,0-3.44-1.4-3.44-3,0-1,.7-1.81,2-2.74A28.83,28.83,0,0,1,185,34.44a10.33,10.33,0,0,1,6,1.69c2.51,1.76,3.21,4.21,3.21,7.19V53.43c0,2.8.94,3.5,1.87,3.5a4.4,4.4,0,0,0,1.81-.46l.64,2ZM187,47.06l-3.27,1.81c-1.82.94-2.87,2-2.87,4,0,3.28,2.28,4.44,3.57,4.44a3.29,3.29,0,0,0,2.57-.93Z"/><path class="cls-6" d="M217.17,61.08v-2c2.45-.35,2.63-.59,2.63-4.62v-10c0-4.15-2.05-5.43-4.09-5.43a7.15,7.15,0,0,0-4.39,1.75V55c0,3.56.24,3.8,2.63,4.15v2H200.4v-2c3-.53,3.39-.59,3.39-4.39V42.56c0-3.5-.47-3.68-3-4.21V36.49a60.28,60.28,0,0,0,10.69-2.23c-.06.82-.12,2.87-.12,4.21,1.17-.82,2.4-1.69,3.74-2.51a8.06,8.06,0,0,1,4.56-1.52c4.73,0,7.71,3.45,7.71,9.41v11c0,3.62.35,3.8,3.16,4.21v2Z"/><path class="cls-6" d="M257,55.36c-3.57,5.25-8.24,6.42-10.7,6.42C238.43,61.78,234,56,234,49.05a15.35,15.35,0,0,1,4.39-10.52,13.08,13.08,0,0,1,9.11-4.09A9.58,9.58,0,0,1,257.13,44c0,1-.06,2-.76,2.17-1.11.29-9.35.7-15,.93.23,6.19,3.68,9.35,7.88,9.35a10.07,10.07,0,0,0,6.66-2.63ZM246.32,36.84c-2.33,0-4.32,2.74-4.67,7.36l7.07-.18c.82-.06,1.17-.17,1.17-1.17C249.94,39.93,248.6,36.84,246.32,36.84Z"/><path class="cls-6" d="M273.37,61.14a6.26,6.26,0,0,1-2.33.64c-4.5,0-7.19-2.1-7.19-7.42V38.06h-3.74l-.35-.7,1.7-2.22h2.39V30.29c2-1.4,4.85-3.27,6.9-4.67l.76.47c-.06,1.57-.18,4.67-.12,9.05h5.84a2.51,2.51,0,0,1-.47,2.92h-5.37V52.38c0,4.55,1.87,5.08,3,5.08a7.24,7.24,0,0,0,2.8-.58l.59,2.1Z"/><path class="cls-6" d="M306.63,37.56c6.9,1.25,11.76,4.53,11.76,10.45a11.91,11.91,0,0,1-6.3,10.31c-3.36,1.84-7.82,2.76-13.15,2.76H281.2V58.65c5.06-.52,5.59-.85,5.59-6.37v-25c0-5.51-.85-6.11-5.52-6.43V18.37h20c5,0,8.15.66,10.78,2.3a8.46,8.46,0,0,1,4,7.3C316,33.42,310.9,36.71,306.63,37.56Zm-8.34-.85c6.24,0,8.54-2.7,8.54-7.56,0-5.72-3.75-7.88-7.36-7.88a5.64,5.64,0,0,0-3.15.78,4.43,4.43,0,0,0-.59,2.83V36.71Zm-2.56,15.44c0,4.73,1.57,6.11,5.12,6.11,3.75-.07,7.75-3.22,7.75-9.6,0-6.11-3.22-9.13-10.58-9.13h-2.29Z"/></svg>